<svg xmlns="http://www.w3.org/2000/svg" width="32" height="32">
  <path fill="#a1a1a1" d="M22.4 14.9c0-4-2.6-6.9-6.4-6.9-3.7 0-6.4 2.9-6.4 6.9 0 2 .5 4 1.6 5.6-3.4 1-6.2 3.6-6.2 5 1 3.1 6.9 5.5 11 5.5 4.2 0 10.1-2.3 11-5.5 0-1.3-3-4-6.1-5a10 10 0 0 0 1.5-5.6zM16 10c2.6 0 4.2 3.1 4.2 5.6 0 2.5-1.4 5.8-4.2 5.8-2.8 0-4.1-3.4-4.1-6 0-2.4 1.5-5.4 4.1-5.4zm0 19c-4.4 0-5.4-.5-9-3.5 1.7-2 4.5-3.5 4.5-3.5 1 1 3 1.5 4.5 1.5 1.6 0 3.5-.4 4.5-1.5 0 0 2.8 1.1 4.5 3.4-2.5 2.9-4.4 3.7-9 3.7zM1 16.4c0 2.2.4 4.1 1.3 6.1.1.3.8.7 1.2.5.3-.3.5-.8.4-1.2-1-2.3-1-3.4-1-5.4C3 8.6 8.5 2.9 16 2.9s13 5.7 13 13.4c0 2 0 3.6-.8 5.4-.2.3 0 1 .4 1.1.3.2 1 0 1-.3A15.2 15.2 0 0 0 16 1C7.8 1 1.1 7.9 1.1 16.3z"/>
</svg>