<svg xmlns="http://www.w3.org/2000/svg" xmlns:xlink="http://www.w3.org/1999/xlink" version="1" width="135" height="15"><defs><linearGradient id="a"><stop offset="0" stop-color="#e3f2ff"/><stop offset="1" stop-color="#a9d0ff"/></linearGradient><radialGradient xlink:href="#a" id="b" cx="14.281" cy="7.5" fx="14.281" fy="7.5" r="7.491" gradientTransform="matrix(1 0 0 1.0292 0 -.219)" gradientUnits="userSpaceOnUse"/></defs><path d="M21.817 7.5a7.281 7.5 0 1 1-14.562 0 7.281 7.5 0 1 1 14.562 0z" fill="#63b2eb" fill-rule="evenodd"/><path d="M1.786 9.874c-.162-.221-.342-.613-.436-.95-.3-1.075-.21-2.642.197-3.445.115-.228.255-.447.32-.501.052-.043.81-.067.81-.025 0 .01-.042.1-.092.2-.382.753-.575 1.785-.506 2.7.056.752.232 1.434.51 1.984.048.095.088.18.088.19 0 .01-.172.02-.382.02h-.382l-.127-.173zm24.526.146c0-.015.077-.209.171-.431a4.974 4.974 0 0 0 .41-2.283c-.047-.981-.187-1.524-.609-2.346-.009-.014.166-.026.385-.026h.399l.125.167c.254.335.43.801.538 1.426.072.42.082 1.335.02 1.751-.105.688-.36 1.378-.611 1.643l-.118.125h-.355c-.195 0-.355-.012-.355-.026z" fill="#bae1ff"/><path d="M3.984 10.898c-.138-.014-.155-.03-.322-.285a3.858 3.858 0 0 1-.49-1.074c-.385-1.244-.37-2.953.034-4.167.124-.37.407-.926.566-1.111l.113-.131.466-.004c.256-.002.474.003.484.013.01.01-.02.095-.067.188-.226.45-.425 1.207-.534 2.024-.063.47-.073 1.793-.018 2.26a8.89 8.89 0 0 0 .39 1.729c.097.286.166.53.154.542-.027.026-.566.037-.775.016zm20.253 0c-.08-.022-.08-.032.045-.324.156-.366.339-1.067.424-1.629.105-.68.114-2.155.019-2.733-.114-.686-.33-1.47-.501-1.81-.14-.28-.148-.273.402-.273h.485l.141.201c.32.459.579 1.122.712 1.83.107.567.134 1.771.052 2.357-.12.86-.358 1.572-.698 2.08-.178.267-.185.273-.355.295-.197.026-.633.03-.726.005z" fill="#95d0f9"/><path d="M22.872 3.443c.502.571.858 1.504 1.03 2.7.06.42.06 1.918-.001 2.398a8.26 8.26 0 0 1-.36 1.565 4.56 4.56 0 0 1-.55 1.14l-.195.306H22.1c-.383 0-.691-.012-.685-.026.009-.015.054-.105.104-.202.427-.81.797-2.029.907-2.99.061-.525.025-1.697-.066-2.2a9.521 9.521 0 0 0-.702-2.273l-.24-.537h1.35l.105.119zM7.578 3.359c0 .02-.057.15-.127.29a9.37 9.37 0 0 0-.836 2.675c-.075.539-.077 1.86 0 2.304.145.866.383 1.635.752 2.424.118.253.215.468.215.48 0 .01-.299.02-.663.02h-.663l-.127-.154c-.978-1.195-1.377-4.053-.854-6.131.194-.77.516-1.444.866-1.812l.124-.131h.659c.426 0 .658.012.658.035z" fill="#63b2eb" fill-rule="evenodd"/><path transform="translate(.255)" d="M21.563 7.5A7.281 7.5 0 1 1 7 7.5a7.281 7.5 0 1 1 14.563 0z" fill="url(#b)" fill-rule="evenodd" stroke="#fff" stroke-width="2"/><path d="M21.563 7.5A7.281 7.5 0 1 1 7 7.5a7.281 7.5 0 1 1 14.563 0z" transform="translate(.255)" fill="url(#b)" fill-rule="evenodd"/><path d="M11.921 4.11a4.307 4.307 0 0 1 6.102.746c1.483 1.913 1.158 4.684-.726 6.19a4.307 4.307 0 0 1-6.104-.727c-1.488-1.91-1.171-4.68.709-6.193" fill="none" stroke="#fff" stroke-linecap="square" stroke-linejoin="round"/><path fill="#fff" fill-rule="evenodd" d="M14-1h1v17h-1z"/><path fill="#fff" fill-rule="evenodd" d="M7 7h15v1H7z"/><path fill="#fff" fill-rule="evenodd" d="M8.136 1.843l.707-.707 12.02 12.02-.706.708z"/><path fill="#fff" fill-rule="evenodd" d="M8.843 12.45L19.45 1.842l.707.707L9.55 13.157z"/><g font-size="13.2"><path style="-inkscape-font-specification:Frutiger Neue 75 Bold" d="M29 2.998h2.825c.51 0 .977.043 1.399.129.422.086.783.223 1.082.413.3.18.528.417.687.709.167.292.25.645.25 1.057 0 .516-.158.96-.475 1.329-.316.361-.796.606-1.438.735v.026c.677.086 1.205.318 1.584.696.378.37.567.851.567 1.445 0 .464-.105.855-.317 1.173a2.223 2.223 0 0 1-.818.761c-.334.19-.717.327-1.148.413a7.533 7.533 0 0 1-1.334.116H29V2.998m1.795 3.792h.489a9 9 0 0 0 .87-.04c.265-.033.49-.094.674-.18a1.1 1.1 0 0 0 .436-.387c.105-.163.158-.374.158-.632 0-.249-.053-.45-.158-.606a.96.96 0 0 0-.423-.36 1.867 1.867 0 0 0-.62-.194 5.252 5.252 0 0 0-.753-.052h-.673v2.45m0 3.857h.607c.757 0 1.316-.1 1.677-.297.36-.206.541-.546.541-1.019 0-.464-.19-.79-.568-.98-.37-.198-.95-.296-1.742-.296h-.515v2.592M37 3h2.666c.564 0 1.078.034 1.545.103.466.069.862.194 1.188.374.334.172.59.413.765.722.185.301.278.688.278 1.161 0 .593-.172 1.066-.515 1.419-.335.352-.805.589-1.413.71v.025c.159.043.295.099.41.168.123.068.228.15.316.245.088.094.168.21.238.348.07.129.14.275.211.438l1.426 3.29h-2.046l-1.03-2.554a8.395 8.395 0 0 0-.264-.58.965.965 0 0 0-.303-.362.96.96 0 0 0-.436-.193 3.702 3.702 0 0 0-.686-.052h-.489v3.74H37V3m1.861 3.87h.541c.74 0 1.276-.096 1.61-.285.344-.197.516-.524.516-.98 0-.24-.049-.438-.146-.593a.96.96 0 0 0-.422-.361 1.75 1.75 0 0 0-.66-.18 7.004 7.004 0 0 0-.898-.052h-.54v2.45M45 3h5.452v1.496h-3.617v2.167h3.326V8.12h-3.326v2.373h3.656v1.51H45V3m15.768 9.002h-2.02l-.804-2.076h-3.842l-.805 2.076h-1.914L55 3h2.099l3.67 9.002m-4.093-5.546c-.052-.137-.11-.296-.171-.477l-.185-.567a15.683 15.683 0 0 0-.158-.555 5.678 5.678 0 0 1-.12-.438h-.026c-.035.12-.079.266-.132.438a13.31 13.31 0 0 1-.184.555l-.185.567c-.062.18-.119.34-.172.477l-.765 2.103h2.864l-.766-2.103M64 12.002h-2V3h2v3.92h.026l.344-.438a24992.9 24992.9 0 0 0 .897-1.083c.15-.172.269-.31.357-.413L67.214 3h2.31l-3.755 4.204 4.125 4.798h-2.508l-1.894-2.425c-.088-.103-.19-.227-.304-.374a63.94 63.94 0 0 1-.37-.477 88.807 88.807 0 0 0-.409-.529c-.132-.18-.26-.356-.383-.528H64v4.333M71 3h2v9.002h-2V3m10.254 0H83v9.002h-2.447l-2.46-4.41a26.32 26.32 0 0 1-.399-.723 182.364 182.364 0 0 1-.742-1.496l-.248-.555h-.027a22.145 22.145 0 0 1 .041 1.406c.01.293.014.58.014.864.01.284.014.52.014.71v4.204H75V3h2.584l2.42 4.45c.091.163.196.36.316.593.119.232.238.473.357.722.128.25.247.494.357.735l.275.58h.028c-.01-.163-.019-.382-.028-.657a247.688 247.688 0 0 1-.055-1.845V3M92.5 4.868a4.36 4.36 0 0 0-1.083-.361 6.33 6.33 0 0 0-1.36-.142 3.83 3.83 0 0 0-1.333.22 2.938 2.938 0 0 0-1.016.618 2.87 2.87 0 0 0-.647.98 3.55 3.55 0 0 0-.224 1.29c0 .464.07.89.211 1.277.14.387.343.718.607.993a2.95 2.95 0 0 0 1.003.632c.396.146.85.22 1.36.22.194 0 .383-.01.568-.027a3.6 3.6 0 0 0 .514-.103V8.221h-1.966V6.777h3.735v4.836a8.64 8.64 0 0 1-1.531.374c-.52.069-1.043.103-1.57.103-.705 0-1.36-.103-1.968-.31a4.655 4.655 0 0 1-1.557-.915 4.252 4.252 0 0 1-1.03-1.457c-.246-.576-.37-1.226-.37-1.948 0-.696.124-1.324.37-1.883a4.046 4.046 0 0 1 1.043-1.444 4.675 4.675 0 0 1 1.65-.903c.642-.215 1.364-.322 2.165-.322.457 0 .902.025 1.333.077.44.052.85.142 1.228.27L92.5 4.869" font-weight="700" fill="#a00" font-family="Frutiger Neue 75"/><path style="-inkscape-font-specification:'Frutiger Neue 65,'" d="M102.772 2.996h1.405V12h-1.962l-2.683-5.121a55.671 55.671 0 0 0-.33-.632 45.6 45.6 0 0 1-.316-.658 51.844 51.844 0 0 0-.291-.632 33.65 33.65 0 0 1-.215-.516h-.026a23.66 23.66 0 0 1 .038 1.29c.009.258.013.52.013.787.008.258.013.481.013.67V12H97V2.996h2.14l2.594 5.07c.085.163.173.348.266.554.101.198.203.405.304.62.101.206.194.412.278.619.093.198.173.374.24.529h.026a29.467 29.467 0 0 1-.025-.645c-.01-.267-.017-.546-.026-.839l-.025-.89V2.996m8.588 9.008H106V3h5.28v1.303h-3.696V6.74h3.419v1.264h-3.419V10.7h3.775v1.303m7.584-6.268a30.887 30.887 0 0 1-.198-.774 5.509 5.509 0 0 0-.092-.439 12.18 12.18 0 0 1-.066-.4h-.027a20.95 20.95 0 0 1-.316 1.613l-1.545 6.269h-2.033L112 3h1.716l1.531 5.714c.018.078.044.202.08.374.043.172.087.362.131.568.053.206.097.417.132.632.044.206.08.378.106.516h.026a79.225 79.225 0 0 1 .238-1.148c.044-.206.084-.396.119-.568.044-.172.075-.296.092-.374L117.544 3h2.178l1.426 5.714c.017.078.044.207.079.387a14.507 14.507 0 0 1 .25 1.187c.045.206.08.378.106.516h.027c.026-.138.061-.31.105-.516l.132-.62c.044-.206.084-.395.119-.567.044-.172.08-.3.106-.387L123.59 3h1.623l-2.666 9.004h-2.007l-1.597-6.27m11.852-1.269a4.431 4.431 0 0 0-.95-.297 4.17 4.17 0 0 0-.845-.09c-.493 0-.889.108-1.188.323-.29.206-.436.477-.436.812 0 .146.022.284.066.413.044.12.128.24.251.361.132.12.308.241.528.361.22.12.506.25.858.387.827.319 1.426.684 1.795 1.097.37.413.555.937.555 1.573 0 .413-.08.792-.238 1.136a2.496 2.496 0 0 1-.673.864 3.238 3.238 0 0 1-1.03.555 4.466 4.466 0 0 1-1.36.193c-.422 0-.822-.03-1.2-.09a5.62 5.62 0 0 1-1.096-.297l.158-1.393c.388.19.744.322 1.07.4.334.069.655.103.963.103.528 0 .955-.112 1.28-.335a1.07 1.07 0 0 0 .502-.942c0-.18-.026-.344-.079-.49a1.05 1.05 0 0 0-.29-.413 2.319 2.319 0 0 0-.542-.374 6.984 6.984 0 0 0-.87-.4 7.245 7.245 0 0 1-1.07-.503 3.256 3.256 0 0 1-.713-.58 2.015 2.015 0 0 1-.383-.658 2.593 2.593 0 0 1-.118-.813c0-.378.074-.722.224-1.032.15-.318.36-.585.634-.8a2.9 2.9 0 0 1 .99-.516c.387-.12.814-.18 1.28-.18.37 0 .722.026 1.056.077a5.64 5.64 0 0 1 1.03.258l-.159 1.29" font-weight="400" fill="#666" font-family="Frutiger Neue 65"/></g></svg>