<svg xmlns="http://www.w3.org/2000/svg" width="34" height="32">
  <g fill="#828282">
    <path d="M34 30.5v-19a.5.5 0 0 0-1 0v19c0 .3-.2.5-.5.5h-31a.5.5 0 0 1-.5-.5v-19a.5.5 0 0 0-1 0v19c0 .8.7 1.5 1.5 1.5h31c.8 0 1.5-.7 1.5-1.5z"/>
    <path d="M4.5 23a.5.5 0 0 0 0 1H6v3.5a.5.5 0 0 0 1 0V24h6v3.5a.5.5 0 0 0 1 0V24h6v3.5a.5.5 0 0 0 1 0V24h6v3.5a.5.5 0 0 0 1 0V24h1.5a.5.5 0 0 0 0-1H28v-5h1.5a.5.5 0 0 0 0-1H28v-4.5a.5.5 0 0 0-1 0V17h-6v-4.5a.5.5 0 0 0-1 0V17h-6v-4.5a.5.5 0 0 0-1 0V17H7v-4.5a.5.5 0 0 0-1 0V17H4.5a.5.5 0 0 0 0 1H6v5H4.5zM27 18v5h-6v-5h6zm-7 0v5h-6v-5h6zM7 18h6v5H7v-5zM28.5 3h4.3s.2 0 .2.5V8H1V3.5c0-.3.2-.5.5-.5h4a.5.5 0 0 0 0-1h-4C.7 2 0 2.7 0 3.5v5c0 .3.2.5.5.5h33c.3 0 .5-.2.5-.5v-5c0-1.1-.6-1.5-1.3-1.5h-4.2a.5.5 0 0 0 0 1z"/>
    <path d="M22.5 3a.5.5 0 0 0 0-1h-11a.5.5 0 0 0 0 1h11zM9 4.5v-4a.5.5 0 0 0-1 0v4a.5.5 0 0 0 1 0zM25.5 5c.3 0 .5-.2.5-.5v-4a.5.5 0 0 0-1 0v4c0 .3.2.5.5.5z"/>
  </g>
</svg>
