<svg xmlns="http://www.w3.org/2000/svg" width="25" height="32"><g fill="#a1a1a1"><path d="M13.6 22a10.5 10.5 0 1 0 0-21 10.5 10.5 0 0 0 0 21zm0-20a9.5 9.5 0 1 1 0 19 9.5 9.5 0 0 1 0-19zM9 28a2 2 0 0 0-2 2v1.5c0 .3.3.5.6.5h12c.2 0 .5-.2.5-.5v-1.4a2 2 0 0 0-2-2.1H9zm10 2v1H8v-1c0-.6.5-1 1-1h9c.6 0 1 .5 1 1z"/><path d="M13 25v1.6a.5.5 0 0 0 1 0V25c3.3-.2 6.3-1.4 8.7-3.6l1.2 1.2a.5.5 0 0 0 .7-.7L23 20.3a.5.5 0 0 0-.7 0 12.4 12.4 0 0 1-17.6 0 12.4 12.4 0 0 1 0-17.6c.2-.2.2-.6 0-.7L3 .4a.5.5 0 0 0-.7.7l1.2 1.2A13.4 13.4 0 0 0 4 21c2.4 2.5 5.6 3.9 9 4z"/></g></svg>