<svg xmlns="http://www.w3.org/2000/svg" width="51" height="22">
  <g fill="#a1a1a1">
    <path d="M18.5 3.4h-17a1.5 1.5 0 1 1 0-3h17a1.5 1.5 0 1 1 0 3zm-5 6h-12a1.5 1.5 0 1 1 0-3h12a1.5 1.5 0 1 1 0 3zm0 6h-12a1.5 1.5 0 1 1 0-3h12a1.5 1.5 0 1 1 0 3zm4.2 6H1.5a1.5 1.5 0 1 1 0-3h16.2a1.5 1.5 0 1 1 0 3zm17.2 0c-8.7 0-15.2-9.5-15.4-10-.4-.4-.4-1 0-1.6.2-.4 6.4-9.8 15.4-9.8 9.2 0 15.3 9.5 15.5 9.9.3.5.3 1 0 1.6-.3.4-6.5 9.9-15.5 9.9zM22.6 10.6c1.6 2.2 6.5 7.8 12.3 7.8 6 0 10.8-5.6 12.4-7.7C45.7 8.5 41 3 34.9 3c-6 0-10.7 5.5-12.3 7.6z"/>
    <path d="M34.8 16.2a5.6 5.6 0 1 1 0-11.2 5.6 5.6 0 0 1 0 11.2zm0-8.2a2.6 2.6 0 1 0 0 5.2 2.6 2.6 0 0 0 0-5.2z"/>
  </g>
</svg>