<svg xmlns="http://www.w3.org/2000/svg" width="256" height="256"><path fill="#a1a1a1" d="M4.5 34.7A4.5 4.5 0 0 0 0 39.2v177.6a4.5 4.5 0 0 0 0 .3 4.5 4.5 0 0 0 0 .2 4.5 4.5 0 0 0 0 .3 4.5 4.5 0 0 0 .1.2 4.5 4.5 0 0 0 0 .2 4.5 4.5 0 0 0 .1.2 4.5 4.5 0 0 0 .1.2 4.5 4.5 0 0 0 .1.2 4.5 4.5 0 0 0 .1.2 4.5 4.5 0 0 0 .1.2 4.5 4.5 0 0 0 .1.2 4.5 4.5 0 0 0 .1.2 4.5 4.5 0 0 0 .2.2 4.5 4.5 0 0 0 .1.2 4.5 4.5 0 0 0 .2.1 4.5 4.5 0 0 0 .1.2 4.5 4.5 0 0 0 .2.1 4.5 4.5 0 0 0 .2.2 4.5 4.5 0 0 0 .2.1 4.5 4.5 0 0 0 .2.1 4.5 4.5 0 0 0 .2.1 4.5 4.5 0 0 0 .2.1 4.5 4.5 0 0 0 .2.1 4.5 4.5 0 0 0 .2 0 4.5 4.5 0 0 0 .2.2 4.5 4.5 0 0 0 .2 0 4.5 4.5 0 0 0 .2 0 4.5 4.5 0 0 0 .3.1 4.5 4.5 0 0 0 .2 0 4.5 4.5 0 0 0 .2 0 4.5 4.5 0 0 0 .2 0h211.3a4.5 4.5 0 0 0 4.3-3.1l35.7-119.2a4.5 4.5 0 0 0-4.3-5.8h-32.9V56.5a4.5 4.5 0 0 0-4.5-4.5H91.5V39.2a4.5 4.5 0 0 0-4.5-4.5H4.5zm4.5 9h73.5v12.8A4.5 4.5 0 0 0 87 61h122.6v32h-87.3a4.5 4.5 0 0 0-3.2 1.5l-23.9 24.9H37.8a4.5 4.5 0 0 0-4.2 3L9 190.9V43.7zm115.2 58.4h121.3l-26.9 89.4-6.2 20.8H10.9l30-84h56.2a4.5 4.5 0 0 0 3.3-1.3l23.8-25z"/></svg>