<svg xmlns="http://www.w3.org/2000/svg" width="600" height="113" viewBox="0 0 130.263 24.593"><defs><linearGradient id="a"><stop offset="0" stop-color="#001a4b"/><stop offset="1" stop-color="#001a4b" stop-opacity="0"/></linearGradient></defs><path d="M123.874 0a6.393 6.393 0 0 0-6.389 6.389c0 3.542 2.86 6.425 6.389 6.425 3.528 0 6.389-2.883 6.389-6.425A6.394 6.394 0 0 0 123.873 0zM78.626.908V18.35h3.049v-5.736c0-2.08 1.223-3.848 2.777-3.848 1.123 0 1.452.754 1.452 1.997v7.587h3.05v-8.331c0-2.08-.863-3.794-3.54-3.794-1.84 0-3.21.876-3.902 2.215l-.055-.018c.168-.693.218-1.697.218-2.414v-5.1h-3.05zm45.248.036c2.996 0 5.463 2.44 5.463 5.445 0 3.025-2.467 5.481-5.463 5.481s-5.463-2.456-5.463-5.481c0-3.005 2.467-5.445 5.463-5.445zM4.374 2.033l-1.797.508V6.48H0v1.415h2.577v7.133c0 2.462.696 3.521 3.086 3.521.74 0 1.575-.092 2.196-.236v-1.56c-.478.143-1.09.217-1.688.217-1.41 0-1.797-.54-1.797-2.668V7.895H7.86V6.48H4.374zm122.095.544l-6.443 2.324V6.48l2.124-.763v4.81l4.32-1.525zM62.835 6.225c-3.346 0-5.045 1.714-5.045 3.794 0 4.039 4.791 2.833 4.791 4.937 0 .788-.753 1.27-1.924 1.27-.908 0-1.818-.154-2.559-.345l-.072 2.505c.764.12 1.626.218 2.486.218 3.25 0 5.3-1.578 5.3-3.92 0-3.849-4.864-3.002-4.864-4.937 0-.741.565-1.216 1.76-1.216.741 0 1.527.117 2.196.308l.091-2.414c-.717-.12-1.467-.2-2.16-.2zm33.687 0c-1.53 0-3.052.296-4.247.726l.272 2.56c1.004-.574 2.427-.926 3.503-.926 1.72 0 2.323.645 2.323 1.888v.635c-4.04 0-6.86 1.512-6.86 4.356 0 1.912 1.242 3.14 3.393 3.14 1.769 0 3.22-.93 3.794-2.269l.036.018a13.357 13.357 0 0 0-.127 1.997h2.886a65.68 65.68 0 0 1-.073-3.05v-4.955c0-2.58-1.076-4.12-4.9-4.12zm-81.73.037a9.993 9.993 0 0 0-4.102.89l.164 1.578c1.051-.67 2.482-1.034 3.63-1.034 2.055 0 2.704 1.002 2.704 2.795v.98c-4.637 0-7.224 1.725-7.224 4.21 0 1.889 1.361 2.886 3.25 2.886 2.03 0 3.564-1.216 4.137-2.722h.055c-.12.693-.127 1.596-.127 2.505h1.76c-.047-1.052-.036-2.387-.036-3.558v-4.664c0-2.247-.936-3.866-4.21-3.866zm12.996 0c-3.227 0-5.173 2.106-5.173 4.592 0 1.53.584 2.755 1.779 3.448-.837.383-1.325 1.111-1.325 1.924 0 .765.457 1.39 1.198 1.724-1.124.574-2.051 1.677-2.051 3.158 0 2.271 1.943 3.485 4.955 3.485 3.656 0 6.225-1.864 6.225-4.374 0-2.08-1.412-3.34-3.993-3.34h-2.305c-1.482 0-2.16-.305-2.16-.998 0-.43.292-.874.89-1.089a8.2 8.2 0 0 0 1.615.164c3.418 0 5.173-1.932 5.173-4.465 0-1.124-.45-2.046-1.144-2.596h2.142V6.48h-4.03a7.4 7.4 0 0 0-1.796-.218zm12.959 0c-3.299 0-5.21 2.664-5.21 6.225 0 4.159 1.915 6.08 5.5 6.08 1.482 0 2.821-.253 3.92-.707l-.163-1.525c-.884.454-2.205.762-3.448.762-2.653 0-4.058-1.484-3.939-5.045h7.932c.048-.359.054-.675.054-.89 0-2.629-1.372-4.9-4.646-4.9zm11.761 0c-3.012 0-4.628 1.5-4.628 3.485 0 4.23 5.771 2.45 5.771 5.318 0 1.242-1.183 1.996-2.904 1.996-.932 0-1.903-.166-2.668-.381l-.036 1.652c.717.143 1.62.235 2.505.235 3.107 0 4.973-1.635 4.973-3.738 0-4.04-5.808-2.42-5.808-5.264 0-1.171.869-1.888 2.613-1.888a7.85 7.85 0 0 1 2.45.4l.055-1.543c-.74-.143-1.582-.272-2.323-.272zm21.235 0c-4.206 0-6.134 2.847-6.134 6.552 0 4.04 2.056 5.753 5.354 5.753 1.267 0 2.436-.233 3.249-.544l-.236-2.614c-.645.335-1.529.509-2.341.509-2.032 0-2.832-1.381-2.832-3.413 0-2.246.986-3.684 2.922-3.684.765 0 1.515.196 2.16.436l.309-2.65a9.332 9.332 0 0 0-2.45-.345zm31.019.218v8.349c0 2.079.862 3.793 3.54 3.793 1.959 0 3.311-.986 4.028-2.396l.037.036c-.12.622-.146 1.538-.146 2.088h2.868V6.48h-3.067v5.735c0 2.08-1.187 3.848-2.74 3.848-1.148 0-1.49-.736-1.49-1.979V6.48zM40.656 7.623c1.816 0 2.916 1.245 2.868 3.086h-6.026c.287-1.865 1.485-3.086 3.158-3.086zm-13.34.036c.122-.01.252 0 .38 0 1.96 0 3.123 1.083 3.123 2.995 0 1.912-1.271 2.977-3.231 2.977-2.008 0-3.176-1.041-3.176-2.977 0-1.636 1.076-2.85 2.904-2.995zm-10.128 5.137v.181c0 2.056-1.381 4.138-3.485 4.138-1.17 0-1.942-.685-1.942-1.76 0-1.147.958-2.56 5.427-2.56zm81.185.308v.29c0 1.435-1.035 2.868-2.541 2.868-.884 0-1.398-.505-1.398-1.27 0-.956.712-1.888 3.939-1.888zm-72.673 5.3c.216.024.524.018.763.018h2.45c1.816 0 2.704.766 2.704 2.033 0 1.577-1.533 2.686-4.138 2.686-1.984 0-3.467-.811-3.467-2.341 0-1.004.66-1.87 1.688-2.396z" fill="#001a4b" fill-rule="evenodd"/></svg>